<svg width="4" height="18" viewBox="0 0 4 18" fill="none" xmlns="http://www.w3.org/2000/svg">
<path d="M3.10578 0.271999L2.84178 12.272H1.01778L0.753781 0.271999H3.10578ZM2.02578 17.144C1.60978 17.144 1.25778 17 0.969781 16.712C0.681781 16.424 0.537781 16.072 0.537781 15.656C0.537781 15.24 0.681781 14.888 0.969781 14.6C1.25778 14.312 1.60978 14.168 2.02578 14.168C2.42578 14.168 2.76178 14.312 3.03378 14.6C3.32178 14.888 3.46578 15.24 3.46578 15.656C3.46578 16.072 3.32178 16.424 3.03378 16.712C2.76178 17 2.42578 17.144 2.02578 17.144Z" fill="#FFDF38"/>
</svg>
