<svg width="97" height="97" viewBox="0 0 97 97" fill="none" xmlns="http://www.w3.org/2000/svg">
<path d="M83 0H97V14H83V0ZM83 21H97V35H83V21ZM62 0H76V14H62V0ZM62 21H76V35H62V21Z" fill="#5A4DC9"/>
<path d="M90.0714 48.5385V69.3077H6.92857V13.9231H48.5V7H6.92857C5.091 7 3.32869 7.72939 2.02933 9.02772C0.729972 10.3261 0 12.087 0 13.9231V69.3077C0 71.1438 0.729972 72.9047 2.02933 74.203C3.32869 75.5014 5.091 76.2308 6.92857 76.2308H34.6429V90.0769H20.7857V97H76.2143V90.0769H62.3571V76.2308H90.0714C91.909 76.2308 93.6713 75.5014 94.9707 74.203C96.27 72.9047 97 71.1438 97 69.3077V48.5385H90.0714ZM55.4286 90.0769H41.5714V76.2308H55.4286V90.0769Z" fill="#5A4DC9"/>
</svg>
