<svg width="26" height="28" viewBox="0 0 26 28" fill="none" xmlns="http://www.w3.org/2000/svg">
<path d="M12.9996 0.00252165C11.1548 -0.0637526 9.72625 1.19151 8.17931 1.98025C6.07531 3.20852 3.90872 4.34162 1.84663 5.63357C0.497852 6.71321 -0.121852 8.45051 0.0197895 10.1282C0.0276426 13.1027 0.00414059 16.078 0.031655 19.0521C0.206314 20.8529 1.47427 22.3812 3.10588 23.1345C5.72513 24.615 8.32903 26.123 10.9579 27.5862C12.629 28.3366 14.6074 28.021 16.0857 27.0057C18.6973 25.5117 21.325 24.0442 23.9263 22.5336C25.4227 21.4844 26.133 19.6389 25.9795 17.8707C25.9716 14.8961 25.9952 11.9209 25.9676 8.94683C25.7928 7.14614 24.525 5.61749 22.8933 4.86448C20.274 3.38431 17.6696 1.87734 15.0409 0.413998C14.4046 0.122933 13.6978 0.00444098 12.9997 0.00246517L12.9996 0.00252165ZM11.3548 7.49309H14.645V20.5063H11.3548V7.49309ZM15.4952 10.3255H18.7838V20.5063H15.4952V10.3255ZM7.21492 15.6365H10.5046V20.5063H7.21492V15.6364V15.6365Z" fill="white"/>
</svg>
