<svg width="18" height="18" viewBox="0 0 18 18" fill="none" xmlns="http://www.w3.org/2000/svg">
<path d="M2.95734 0.271999L2.69334 12.272H0.869344L0.605344 0.271999H2.95734ZM1.87734 17.144C1.46134 17.144 1.10934 17 0.821344 16.712C0.533344 16.424 0.389344 16.072 0.389344 15.656C0.389344 15.24 0.533344 14.888 0.821344 14.6C1.10934 14.312 1.46134 14.168 1.87734 14.168C2.27734 14.168 2.61334 14.312 2.88534 14.6C3.17334 14.888 3.31734 15.24 3.31734 15.656C3.31734 16.072 3.17334 16.424 2.88534 16.712C2.61334 17 2.27734 17.144 1.87734 17.144ZM10.1058 0.271999L9.84178 12.272H8.01778L7.75378 0.271999H10.1058ZM9.02578 17.144C8.60978 17.144 8.25778 17 7.96978 16.712C7.68178 16.424 7.53778 16.072 7.53778 15.656C7.53778 15.24 7.68178 14.888 7.96978 14.6C8.25778 14.312 8.60978 14.168 9.02578 14.168C9.42578 14.168 9.76178 14.312 10.0338 14.6C10.3218 14.888 10.4658 15.24 10.4658 15.656C10.4658 16.072 10.3218 16.424 10.0338 16.712C9.76178 17 9.42578 17.144 9.02578 17.144ZM17.2542 0.271999L16.9902 12.272H15.1662L14.9022 0.271999H17.2542ZM16.1742 17.144C15.7582 17.144 15.4062 17 15.1182 16.712C14.8302 16.424 14.6862 16.072 14.6862 15.656C14.6862 15.24 14.8302 14.888 15.1182 14.6C15.4062 14.312 15.7582 14.168 16.1742 14.168C16.5742 14.168 16.9102 14.312 17.1822 14.6C17.4702 14.888 17.6142 15.24 17.6142 15.656C17.6142 16.072 17.4702 16.424 17.1822 16.712C16.9102 17 16.5742 17.144 16.1742 17.144Z" fill="#F21F1F"/>
</svg>
