<svg width="50" height="51" viewBox="0 0 50 51" fill="none" xmlns="http://www.w3.org/2000/svg">
<path d="M25.0056 12.6203C17.9113 12.6203 12.1891 18.3426 12.1891 25.4368C12.1891 32.5311 17.9113 38.2533 25.0056 38.2533C32.0998 38.2533 37.8221 32.5311 37.8221 25.4368C37.8221 18.3426 32.0998 12.6203 25.0056 12.6203ZM25.0056 33.7692C20.4211 33.7692 16.6732 30.0325 16.6732 25.4368C16.6732 20.8412 20.4099 17.1044 25.0056 17.1044C29.6012 17.1044 33.338 20.8412 33.338 25.4368C33.338 30.0325 29.5901 33.7692 25.0056 33.7692ZM41.3358 12.096C41.3358 13.7581 39.9972 15.0854 38.3464 15.0854C36.6843 15.0854 35.3569 13.7469 35.3569 12.096C35.3569 10.4452 36.6955 9.10663 38.3464 9.10663C39.9972 9.10663 41.3358 10.4452 41.3358 12.096ZM49.8243 15.1301C49.6347 11.1256 48.72 7.57847 45.7864 4.65599C42.8639 1.73351 39.3168 0.818847 35.3123 0.618066C31.1852 0.383822 18.8148 0.383822 14.6877 0.618066C10.6944 0.807692 7.14724 1.72236 4.21361 4.64484C1.27998 7.56731 0.376464 11.1144 0.175683 15.1189C-0.0585611 19.2461 -0.0585611 31.6164 0.175683 35.7436C0.36531 39.748 1.27998 43.2951 4.21361 46.2176C7.14724 49.1401 10.6832 50.0548 14.6877 50.2555C18.8148 50.4898 31.1852 50.4898 35.3123 50.2555C39.3168 50.0659 42.8639 49.1513 45.7864 46.2176C48.7089 43.2951 49.6235 39.748 49.8243 35.7436C50.0586 31.6164 50.0586 19.2572 49.8243 15.1301ZM44.4925 40.1719C43.6224 42.3582 41.9381 44.0425 39.7407 44.9237C36.4501 46.2288 28.6419 45.9276 25.0056 45.9276C21.3692 45.9276 13.5499 46.2176 10.2705 44.9237C8.08422 44.0536 6.39989 42.3693 5.51868 40.1719C4.21361 36.8813 4.51478 29.0732 4.51478 25.4368C4.51478 21.8004 4.22476 13.9811 5.51868 10.7017C6.38873 8.51544 8.07306 6.83112 10.2705 5.94991C13.5611 4.64484 21.3692 4.94601 25.0056 4.94601C28.6419 4.94601 36.4612 4.65599 39.7407 5.94991C41.9269 6.81996 43.6113 8.50429 44.4925 10.7017C45.7975 13.9923 45.4964 21.8004 45.4964 25.4368C45.4964 29.0732 45.7975 36.8925 44.4925 40.1719Z" fill="url(#paint0_linear_2_12002)"/>
<defs>
<linearGradient id="paint0_linear_2_12002" x1="0" y1="50.4313" x2="50" y2="50.4313" gradientUnits="userSpaceOnUse">
<stop stop-color="#00F0FF"/>
<stop offset="1" stop-color="#5773FF"/>
</linearGradient>
</defs>
</svg>
