<svg width="19" height="19" viewBox="0 0 19 19" fill="none" xmlns="http://www.w3.org/2000/svg">
<path d="M16.2858 0H19.0001V2.71428H16.2858V0ZM16.2858 4.07142H19.0001V6.78571H16.2858V4.07142ZM12.2144 0H14.9286V2.71428H12.2144V0ZM12.2144 4.07142H14.9286V6.78571H12.2144V4.07142Z" fill="white"/>
<path d="M17.6428 9.50027V13.5717H1.35714V2.71456H9.49999V1.35742H1.35714C0.997205 1.35742 0.652011 1.50041 0.397497 1.75492C0.142984 2.00943 0 2.35463 0 2.71456V13.5717C0 13.9316 0.142984 14.2768 0.397497 14.5313C0.652011 14.7859 0.997205 14.9288 1.35714 14.9288H6.78571V17.6431H4.07142V19.0003H14.9286V17.6431H12.2143V14.9288H17.6428C18.0028 14.9288 18.348 14.7859 18.6025 14.5313C18.857 14.2768 19 13.9316 19 13.5717V9.50027H17.6428ZM10.8571 17.6431H8.14285V14.9288H10.8571V17.6431Z" fill="white"/>
</svg>
