<svg width="101" height="97" viewBox="0 0 101 97" fill="none" xmlns="http://www.w3.org/2000/svg">
<path d="M41.032 78.8115C49.7633 78.8246 58.2694 76.1519 65.304 71.185H65.2977C65.4871 71.4275 65.6891 71.6578 65.9164 71.8822L90.2199 95.2225C91.4036 96.36 93.0093 96.9994 94.6839 97C96.3584 97.0006 97.9646 96.3623 99.1491 95.2255C100.334 94.0888 100.999 92.5467 101 90.9385C101.001 89.3303 100.336 87.7878 99.1523 86.6502L74.8487 63.3099C74.623 63.0905 74.3803 62.8878 74.1227 62.7036C79.2933 55.9518 82.0763 47.787 82.064 39.4058C82.0607 28.9557 77.7366 18.9345 70.0423 11.5452C62.3481 4.15591 51.9134 0.00321392 41.032 0C30.1496 0 19.713 4.15167 12.018 11.5417C4.323 18.9317 0 28.9547 0 39.4058C0 49.8568 4.323 59.8798 12.018 67.2698C19.713 74.6598 30.1496 78.8115 41.032 78.8115ZM41.032 27.1718C51.5362 17.0293 77.803 34.7741 41.032 57.593C4.26102 34.7741 30.5278 17.0354 41.032 27.1718Z" fill="#5A4DC9"/>
</svg>
